<?xml version="1.0" encoding="iso-8859-1"?>
<!-- Generator: Adobe Illustrator 19.0.0, SVG Export Plug-In . SVG Version: 6.00 Build 0)  -->
<svg version="1.1" id="Capa_1" xmlns="http://www.w3.org/2000/svg" xmlns:xlink="http://www.w3.org/1999/xlink" x="0px" y="0px"
	 viewBox="0 0 480.157 480.157" style="enable-background:new 0 0 480.157 480.157;" xml:space="preserve">
<linearGradient id="SVGID_1_" gradientUnits="userSpaceOnUse" x1="-26.7967" y1="556.8845" x2="-26.7967" y2="622.1744" gradientTransform="matrix(8 0 0 -8 454.452 4942.0571)">
	<stop  offset="0" style="stop-color:#006DF0"/>
	<stop  offset="1" style="stop-color:#00E7F0"/>
</linearGradient>
<path style="fill:url(#SVGID_1_);" d="M477.814,234.461L245.734,2.381c-3.124-3.123-8.188-3.123-11.312,0L2.342,234.461
	c-3.124,3.125-3.123,8.19,0.002,11.314c1.5,1.499,3.534,2.342,5.654,2.342h32.08v224c0,4.418,3.582,8,8,8h384c4.418,0,8-3.582,8-8
	v-224h32.08c4.418-0.001,7.999-3.583,7.998-8.002C480.156,237.995,479.314,235.961,477.814,234.461L477.814,234.461z
	 M432.078,232.117c-4.418,0-8,3.582-8,8v224h-368v-224c0-4.418-3.582-8-8-8h-20.8l212.8-212.8l212.8,212.8H432.078z"/>
<linearGradient id="SVGID_2_" gradientUnits="userSpaceOnUse" x1="-26.865" y1="556.8845" x2="-26.865" y2="622.1744" gradientTransform="matrix(8 0 0 -8 454.452 4942.0571)">
	<stop  offset="0" style="stop-color:#006DF0"/>
	<stop  offset="1" style="stop-color:#00E7F0"/>
</linearGradient>
<path style="fill:url(#SVGID_2_);" d="M206.87,281.717c-12.371-12.621-32.631-12.824-45.253-0.453
	c-12.621,12.371-12.824,32.631-0.453,45.253s32.631,12.824,45.253,0.453c0.152-0.149,0.303-0.3,0.453-0.453l57.328,33.096
	c-4.73,17.028,5.24,34.667,22.268,39.397s34.667-5.24,39.397-22.268c4.73-17.028-5.24-34.667-22.268-39.397
	c-11.217-3.116-23.241,0.106-31.397,8.412l-57.408-33.152c1.717-5.528,1.717-11.448,0-16.976l57.336-33.112
	c6.025,6.133,14.259,9.591,22.856,9.6c17.673,0.035,32.028-14.264,32.063-31.937s-14.264-32.028-31.937-32.063
	c-17.673-0.035-32.028,14.264-32.063,31.937c-0.006,2.897,0.382,5.782,1.153,8.575L206.87,281.717z M302.926,354.261
	c7.655,4.415,10.281,14.199,5.866,21.854c-4.415,7.655-14.199,10.281-21.854,5.866s-10.281-14.199-5.866-21.854
	c0.002-0.003,0.004-0.007,0.006-0.01C285.496,352.47,295.276,349.849,302.926,354.261z M184.078,320.117c-8.837,0-16-7.163-16-16
	s7.163-16,16-16s16,7.163,16,16S192.915,320.117,184.078,320.117z M279.47,235.973c2.287-8.535,11.061-13.601,19.596-11.314
	c8.535,2.287,13.601,11.061,11.314,19.596c-2.287,8.535-11.061,13.601-19.596,11.314c-4.098-1.098-7.592-3.778-9.714-7.452
	C278.936,244.446,278.36,240.073,279.47,235.973z"/>
<g>
</g>
<g>
</g>
<g>
</g>
<g>
</g>
<g>
</g>
<g>
</g>
<g>
</g>
<g>
</g>
<g>
</g>
<g>
</g>
<g>
</g>
<g>
</g>
<g>
</g>
<g>
</g>
<g>
</g>
</svg>
